{
	"asset":{
		"generator":"Khronos glTF Blender I/O v4.2.57",
		"version":"2.0"
	},
	"extensionsUsed":[
		"KHR_materials_specular"
	],
	"scene":0,
	"scenes":[
		{
			"name":"Scene",
			"nodes":[
				0,
				1,
				2
			]
		}
	],
	"nodes":[
		{
			"mesh":0,
			"name":"\u6ed1\u7fd4\u673a",
			"rotation":[
				0,
				0,
				0.7071068286895752,
				0.7071068286895752
			]
		},
		{
			"name":"\ue814\ue812"
		},
		{
			"name":"\u3000\ue813\ue811"
		}
	],
	"materials":[
		{
			"doubleSided":true,
			"extensions":{
				"KHR_materials_specular":{
					"specularFactor":0
				}
			},
			"name":"Material #2",
			"pbrMetallicRoughness":{
				"baseColorFactor":[
					0.5879999995231628,
					0.5879999995231628,
					0.5879999995231628,
					1
				],
				"roughnessFactor":0.858578622341156
			}
		},
		{
			"doubleSided":true,
			"extensions":{
				"KHR_materials_specular":{
					"specularColorFactor":[
						2.0,
						2.0,
						2.0
					]
				}
			},
			"name":"QB-01.jpg",
			"pbrMetallicRoughness":{
				"baseColorTexture":{
					"index":0
				},
				"roughnessFactor":0.20000013709068298
			}
		},
		{
			"doubleSided":true,
			"extensions":{
				"KHR_materials_specular":{
					"specularColorFactor":[
						2.0,
						2.0,
						2.0
					]
				}
			},
			"name":"BCJXMX-04.png",
			"pbrMetallicRoughness":{
				"baseColorTexture":{
					"index":1
				},
				"roughnessFactor":0.20000013709068298
			}
		}
	],
	"meshes":[
		{
			"name":"Mesh",
			"primitives":[
				{
					"attributes":{
						"POSITION":0,
						"NORMAL":1,
						"TEXCOORD_0":2
					},
					"indices":3,
					"material":0
				},
				{
					"attributes":{
						"POSITION":4,
						"NORMAL":5,
						"TEXCOORD_0":6
					},
					"indices":7,
					"material":1
				},
				{
					"attributes":{
						"POSITION":8,
						"NORMAL":9,
						"TEXCOORD_0":10
					},
					"indices":11,
					"material":2
				}
			]
		}
	],
	"textures":[
		{
			"sampler":0,
			"source":0
		},
		{
			"sampler":0,
			"source":1
		}
	],
	"images":[
		{
			"mimeType":"image/jpeg",
			"name":"QB-01",
			"uri":"QB-01.jpg"
		},
		{
			"mimeType":"image/png",
			"name":"BCJXMX-04",
			"uri":"BCJXMX-04.png"
		}
	],
	"accessors":[
		{
			"bufferView":0,
			"componentType":5126,
			"count":238,
			"max":[
				0.4207058548927307,
				3.1734981536865234,
				0.44495245814323425
			],
			"min":[
				-0.11138986051082611,
				0.43840494751930237,
				-0.44495245814323425
			],
			"type":"VEC3"
		},
		{
			"bufferView":1,
			"componentType":5126,
			"count":238,
			"type":"VEC3"
		},
		{
			"bufferView":2,
			"componentType":5126,
			"count":238,
			"type":"VEC2"
		},
		{
			"bufferView":3,
			"componentType":5123,
			"count":1074,
			"type":"SCALAR"
		},
		{
			"bufferView":4,
			"componentType":5126,
			"count":470,
			"max":[
				0.4500000476837158,
				7.042308330535889,
				0.44999998807907104
			],
			"min":[
				-0.44999992847442627,
				-0.24411824345588684,
				-0.44999998807907104
			],
			"type":"VEC3"
		},
		{
			"bufferView":5,
			"componentType":5126,
			"count":470,
			"type":"VEC3"
		},
		{
			"bufferView":6,
			"componentType":5126,
			"count":470,
			"type":"VEC2"
		},
		{
			"bufferView":7,
			"componentType":5123,
			"count":2442,
			"type":"SCALAR"
		},
		{
			"bufferView":8,
			"componentType":5126,
			"count":1336,
			"max":[
				1.2066296339035034,
				7.149515628814697,
				2.49979305267334
			],
			"min":[
				-0.1072070375084877,
				-2.821244478225708,
				-2.5007483959198
			],
			"type":"VEC3"
		},
		{
			"bufferView":9,
			"componentType":5126,
			"count":1336,
			"type":"VEC3"
		},
		{
			"bufferView":10,
			"componentType":5126,
			"count":1336,
			"type":"VEC2"
		},
		{
			"bufferView":11,
			"componentType":5123,
			"count":6570,
			"type":"SCALAR"
		}
	],
	"bufferViews":[
		{
			"buffer":0,
			"byteLength":2856,
			"byteOffset":0,
			"target":34962
		},
		{
			"buffer":0,
			"byteLength":2856,
			"byteOffset":2856,
			"target":34962
		},
		{
			"buffer":0,
			"byteLength":1904,
			"byteOffset":5712,
			"target":34962
		},
		{
			"buffer":0,
			"byteLength":2148,
			"byteOffset":7616,
			"target":34963
		},
		{
			"buffer":0,
			"byteLength":5640,
			"byteOffset":9764,
			"target":34962
		},
		{
			"buffer":0,
			"byteLength":5640,
			"byteOffset":15404,
			"target":34962
		},
		{
			"buffer":0,
			"byteLength":3760,
			"byteOffset":21044,
			"target":34962
		},
		{
			"buffer":0,
			"byteLength":4884,
			"byteOffset":24804,
			"target":34963
		},
		{
			"buffer":0,
			"byteLength":16032,
			"byteOffset":29688,
			"target":34962
		},
		{
			"buffer":0,
			"byteLength":16032,
			"byteOffset":45720,
			"target":34962
		},
		{
			"buffer":0,
			"byteLength":10688,
			"byteOffset":61752,
			"target":34962
		},
		{
			"buffer":0,
			"byteLength":13140,
			"byteOffset":72440,
			"target":34963
		}
	],
	"samplers":[
		{
			"magFilter":9729,
			"minFilter":9987
		}
	],
	"buffers":[
		{
			"byteLength":85580,
			"uri":"SXS_20240126_%E6%BB%91%E7%BF%94%E6%9C%BA.bin"
		}
	]
}
