{
    "asset" : {
        "generator" : "Khronos glTF Blender I/O v1.6.16",
        "version" : "2.0"
    },
    "scene" : 0,
    "scenes" : [
        {
            "name" : "Scene",
            "nodes" : [
                0,
                1,
                2,
                3,
                4
            ]
        }
    ],
    "nodes" : [
        {
            "name" : "Light",
            "rotation" : [
                0.16907575726509094,
                0.7558803558349609,
                -0.27217137813568115,
                0.570947527885437
            ],
            "translation" : [
                4.076245307922363,
                5.903861999511719,
                -1.0054539442062378
            ]
        },
        {
            "name" : "Camera",
            "rotation" : [
                0.483536034822464,
                0.33687159419059753,
                -0.20870360732078552,
                0.7804827094078064
            ],
            "translation" : [
                7.358891487121582,
                4.958309173583984,
                6.925790786743164
            ]
        },
        {
            "mesh" : 0,
            "name" : "\u6ed1\u7fd4\u673a",
            "rotation" : [
                0,
                0,
                0.7071067094802856,
                0.7071068286895752
            ]
        },
        {
            "name" : "\ue814\ue812"
        },
        {
            "name" : "\u3000\ue813\ue811"
        }
    ],
    "materials" : [
        {
            "doubleSided" : true,
            "name" : "Material #2",
            "pbrMetallicRoughness" : {
                "baseColorFactor" : [
                    0.5879999995231628,
                    0.5879999995231628,
                    0.5879999995231628,
                    1
                ],
                "roughnessFactor" : 0.858578622341156
            }
        },
        {
            "doubleSided" : true,
            "name" : "QB-01.jpg",
            "pbrMetallicRoughness" : {
                "baseColorTexture" : {
                    "index" : 0
                },
                "roughnessFactor" : 0.20000013709068298
            }
        },
        {
            "doubleSided" : true,
            "name" : "BCJXMX-04.png",
            "pbrMetallicRoughness" : {
                "baseColorTexture" : {
                    "index" : 1
                },
                "roughnessFactor" : 0.20000013709068298
            }
        }
    ],
    "meshes" : [
        {
            "name" : "\u7f51\u683c",
            "primitives" : [
                {
                    "attributes" : {
                        "POSITION" : 0,
                        "NORMAL" : 1,
                        "TEXCOORD_0" : 2
                    },
                    "indices" : 3,
                    "material" : 0
                },
                {
                    "attributes" : {
                        "POSITION" : 4,
                        "NORMAL" : 5,
                        "TEXCOORD_0" : 6
                    },
                    "indices" : 7,
                    "material" : 1
                },
                {
                    "attributes" : {
                        "POSITION" : 8,
                        "NORMAL" : 9,
                        "TEXCOORD_0" : 10
                    },
                    "indices" : 11,
                    "material" : 2
                }
            ]
        }
    ],
    "textures" : [
        {
            "sampler" : 0,
            "source" : 0
        },
        {
            "sampler" : 0,
            "source" : 1
        }
    ],
    "images" : [
        {
            "bufferView" : 8,
            "mimeType" : "image/jpeg",
            "name" : "QB-01"
        },
        {
            "bufferView" : 13,
            "mimeType" : "image/png",
            "name" : "BCJXMX-04"
        }
    ],
    "accessors" : [
        {
            "bufferView" : 0,
            "componentType" : 5126,
            "count" : 238,
            "max" : [
                0.4207058548927307,
                3.1734981536865234,
                0.44495245814323425
            ],
            "min" : [
                -0.11138986051082611,
                0.43840494751930237,
                -0.44495245814323425
            ],
            "type" : "VEC3"
        },
        {
            "bufferView" : 1,
            "componentType" : 5126,
            "count" : 238,
            "type" : "VEC3"
        },
        {
            "bufferView" : 2,
            "componentType" : 5126,
            "count" : 238,
            "type" : "VEC2"
        },
        {
            "bufferView" : 3,
            "componentType" : 5123,
            "count" : 1074,
            "type" : "SCALAR"
        },
        {
            "bufferView" : 4,
            "componentType" : 5126,
            "count" : 470,
            "max" : [
                0.4500000476837158,
                7.042308330535889,
                0.44999998807907104
            ],
            "min" : [
                -0.44999992847442627,
                -0.24411824345588684,
                -0.44999998807907104
            ],
            "type" : "VEC3"
        },
        {
            "bufferView" : 5,
            "componentType" : 5126,
            "count" : 470,
            "type" : "VEC3"
        },
        {
            "bufferView" : 6,
            "componentType" : 5126,
            "count" : 470,
            "type" : "VEC2"
        },
        {
            "bufferView" : 7,
            "componentType" : 5123,
            "count" : 2442,
            "type" : "SCALAR"
        },
        {
            "bufferView" : 9,
            "componentType" : 5126,
            "count" : 1354,
            "max" : [
                1.2066296339035034,
                7.149515628814697,
                2.49979305267334
            ],
            "min" : [
                -0.1072070375084877,
                -2.821244478225708,
                -2.5007483959198
            ],
            "type" : "VEC3"
        },
        {
            "bufferView" : 10,
            "componentType" : 5126,
            "count" : 1354,
            "type" : "VEC3"
        },
        {
            "bufferView" : 11,
            "componentType" : 5126,
            "count" : 1354,
            "type" : "VEC2"
        },
        {
            "bufferView" : 12,
            "componentType" : 5123,
            "count" : 6570,
            "type" : "SCALAR"
        }
    ],
    "bufferViews" : [
        {
            "buffer" : 0,
            "byteLength" : 2856,
            "byteOffset" : 0
        },
        {
            "buffer" : 0,
            "byteLength" : 2856,
            "byteOffset" : 2856
        },
        {
            "buffer" : 0,
            "byteLength" : 1904,
            "byteOffset" : 5712
        },
        {
            "buffer" : 0,
            "byteLength" : 2148,
            "byteOffset" : 7616
        },
        {
            "buffer" : 0,
            "byteLength" : 5640,
            "byteOffset" : 9764
        },
        {
            "buffer" : 0,
            "byteLength" : 5640,
            "byteOffset" : 15404
        },
        {
            "buffer" : 0,
            "byteLength" : 3760,
            "byteOffset" : 21044
        },
        {
            "buffer" : 0,
            "byteLength" : 4884,
            "byteOffset" : 24804
        },
        {
            "buffer" : 0,
            "byteLength" : 13106,
            "byteOffset" : 29688
        },
        {
            "buffer" : 0,
            "byteLength" : 16248,
            "byteOffset" : 42796
        },
        {
            "buffer" : 0,
            "byteLength" : 16248,
            "byteOffset" : 59044
        },
        {
            "buffer" : 0,
            "byteLength" : 10832,
            "byteOffset" : 75292
        },
        {
            "buffer" : 0,
            "byteLength" : 13140,
            "byteOffset" : 86124
        },
        {
            "buffer" : 0,
            "byteLength" : 51028,
            "byteOffset" : 99264
        }
    ],
    "samplers" : [
        {
            "magFilter" : 9729,
            "minFilter" : 9987
        }
    ],
    "buffers" : [
        {
            "byteLength" : 150292,
            "uri" : "data:application/octet-stream;base64,"
        }
    ]
}
