<?xml version="1.0" standalone="no"?><!DOCTYPE svg PUBLIC "-//W3C//DTD SVG 1.1//EN" "http://www.w3.org/Graphics/SVG/1.1/DTD/svg11.dtd"><svg t="1725521635002" class="icon" viewBox="0 0 1024 1024" version="1.1" xmlns="http://www.w3.org/2000/svg" p-id="36675" xmlns:xlink="http://www.w3.org/1999/xlink" width="200" height="200"><path d="M512.001463 512m-512 0a512 512 0 1 0 1024 0 512 512 0 1 0-1024 0Z" fill="#1D8EFF" p-id="36676" data-spm-anchor-id="a313x.search_index.0.i1.6cc23a81sSilCc" class=""></path><path d="M1015.955749 601.965714c-58.514286 43.154286-100.937143 123.611429-153.6 166.034286a153.6 153.6 0 0 1-137.508572 41.691429c-42.422857-13.165714-60.708571-51.931429-87.771428-83.382858s-78.994286-10.971429-108.982858 19.017143a279.405714 279.405714 0 0 0-73.142857 131.657143 129.462857 129.462857 0 0 0 35.108572 134.582857l13.897143 12.434286H512.001463a512 512 0 0 0 503.954286-422.034286zM635.612891 360.594286c-59.977143-7.314286-135.314286 0-166.765714-67.291429a94.354286 94.354286 0 0 1 0-86.308571c8.045714-15.36 40.228571-40.228571 24.137143-60.708572a79.725714 79.725714 0 0 0-84.114286-32.914285 358.4 358.4 0 0 1-100.205714 16.091428 89.965714 89.965714 0 0 1-73.142857-49.737143A512 512 0 0 0 0.001463 512a557.348571 557.348571 0 0 0 5.851428 78.994286 82.651429 82.651429 0 0 1 54.857143 0c36.571429 10.971429 46.08 47.542857 73.142857 65.828571a62.171429 62.171429 0 0 0 46.811429 8.045714c17.554286-5.851429 14.628571-35.84 16.091429-51.931428A365.714286 365.714286 0 0 1 219.430034 496.64c29.257143-54.857143 119.222857-46.08 168.96-31.451429a136.777143 136.777143 0 0 1 73.142857 57.782858 89.965714 89.965714 0 0 0 78.262858 46.811428 197.485714 197.485714 0 0 0 163.108571-78.262857c44.617143-59.245714-1.462857-125.805714-67.291429-130.925714z" fill="#33CAFF" p-id="36677"></path></svg>